<svg width="198" height="36" viewBox="0 0 198 36" fill="none" xmlns="http://www.w3.org/2000/svg">
<path fill-rule="evenodd" clip-rule="evenodd" d="M172.134 23.5327V0H166.36V23.5828C166.36 25.7858 166.98 27.7886 166.98 27.7886H172.278C172.297 27.7684 172.277 27.4073 172.247 26.8491L172.247 26.8483C172.202 26.0201 172.134 24.7585 172.134 23.5327ZM87.2853 23.1831C85.4719 23.1831 84.0402 22.7825 83.0857 21.9313C82.5131 21.4807 82.0358 20.93 81.7018 20.3291C81.2723 19.4779 81.2246 18.5266 81.2246 18.5266C81.2246 18.5266 82.8471 18.8771 86.7604 18.8771C92.8212 18.8771 96.639 17.5252 96.639 13.3194C96.639 8.8632 93.0121 5.35833 87.0945 5.25819H86.8081C85.1378 5.25819 83.6107 5.55861 82.179 6.15944C80.7951 6.76028 79.602 7.56139 78.5521 8.61285C77.5976 9.61424 76.8341 10.8159 76.2614 12.2679C75.7364 13.77 75.4978 15.2721 75.4978 16.7742C75.4978 18.076 75.641 19.1775 75.9273 20.2791C76.0228 20.6795 76.1659 21.08 76.309 21.4805L76.3091 21.4807C76.7863 22.8827 77.5499 24.0843 78.5044 25.1358C79.4588 26.1372 80.6519 26.8882 82.0836 27.4891C83.5152 28.0398 85.0901 28.2902 86.999 28.2902C88.9556 28.2902 90.6737 28.0398 92.2008 27.5892C93.7756 27.1386 95.2073 26.3875 96.5913 25.3861L94.2051 21.1302C92.2008 22.4821 89.8624 23.1831 87.2853 23.1831ZM25.0544 21.0314L29.7313 5.96051H35.7443L28.2519 27.7408H22.1911L17.896 12.6198L13.5533 27.7408H7.54019L0 5.96051H6.06079L10.6899 21.0314L15.0327 5.96051H20.7594L25.0544 21.0314ZM42.5195 18.9285H37.4132L41.231 5.96051H47.769L42.5195 18.9285ZM90.9573 13.0189C90.9573 11.667 89.0484 10.3652 86.71 10.3652C83.4171 10.3652 81.6514 12.8687 81.365 14.4209H86.71C89.812 14.4209 90.9573 14.1204 90.9573 13.0189ZM188.646 23.1831C186.833 23.1831 185.401 22.7825 184.447 21.9313C183.874 21.4807 183.397 20.93 183.063 20.3291C182.633 19.4779 182.586 18.5266 182.586 18.5266C182.586 18.5266 184.208 18.8771 188.121 18.8771C194.23 18.8771 198 17.5252 198 13.3194C198 8.8632 194.373 5.35833 188.455 5.25819H188.217C186.547 5.25819 185.019 5.55861 183.588 6.15944C182.204 6.76028 181.011 7.56139 179.961 8.61285C179.006 9.61424 178.243 10.8159 177.67 12.2679C177.145 13.77 176.907 15.2721 176.907 16.7742C176.907 18.076 177.05 19.1775 177.336 20.2791C177.431 20.6796 177.575 21.0802 177.718 21.4807C178.195 22.8827 178.959 24.0843 179.913 25.1358C180.868 26.1372 182.061 26.8882 183.492 27.4891C184.924 28.0398 186.499 28.2902 188.408 28.2902C190.364 28.2902 192.082 28.0398 193.61 27.5892C195.184 27.1386 196.616 26.3875 198 25.3861L195.614 21.1302C193.562 22.4821 191.271 23.1831 188.646 23.1831ZM192.323 13.0189C192.323 11.667 190.414 10.3652 188.076 10.3652C184.783 10.3652 183.017 12.8687 182.731 14.4209H188.076C191.178 14.4209 192.323 14.1204 192.323 13.0189ZM118.114 16.4255C116.73 15.3741 114.869 14.6731 112.531 14.4228L108.474 13.9221C107.09 13.7218 106.422 13.171 106.422 12.2197C106.422 10.9179 107.663 10.3171 110.192 10.3171C112.674 10.3171 114.965 10.8678 116.969 12.0194L119.212 7.6133C116.73 6.11121 113.724 5.36017 110.288 5.36017C107.234 5.36017 104.895 6.01107 103.32 7.31288C101.698 8.61469 100.934 10.3171 100.934 12.47C100.934 14.4728 101.507 16.0751 102.652 17.1265C103.798 18.228 105.42 18.8789 107.424 19.0792L112.197 19.63C112.96 19.6801 113.581 19.8803 114.01 20.1307C114.44 20.4311 114.631 20.8317 114.631 21.3824C114.631 22.0333 114.249 22.534 113.485 22.9346C112.674 23.235 111.433 23.3852 109.954 23.3852C108.665 23.3852 107.377 23.235 106.04 22.9346C104.895 22.6342 103.702 22.1335 102.366 21.3824L100.218 25.7385C101.793 26.7399 103.32 27.4408 104.704 27.7413C106.136 28.1418 107.806 28.3421 109.763 28.3421C112.96 28.3421 115.537 27.6912 117.351 26.4394C119.164 25.1376 120.071 23.3852 120.071 21.0319C120.071 19.0292 119.451 17.477 118.114 16.4255ZM63.0884 5.50704C69.2447 5.50704 71.1536 10.0634 71.1536 12.7671V23.5321C71.1536 25.5349 71.2967 27.7379 71.2967 27.7379H65.9995C65.9995 27.7379 65.3314 25.7351 65.3314 23.5321V13.9187C65.3314 12.6169 64.4247 10.5641 61.5613 10.5641C59.255 10.5641 57.0344 12.0477 56.0365 12.7144L56.0348 12.7155C55.9803 12.752 55.9293 12.786 55.8823 12.8172V27.788H50.1078V6.00773H55.1187L55.5482 8.16072C57.4094 6.95905 60.0819 5.50704 63.0884 5.50704ZM151.902 21.6801L157.008 5.95828C157.008 5.95828 163.036 5.95828 163.069 5.90862L153.047 36H147.082L150.088 26.5869C150.088 26.5869 145.459 25.3352 143.789 20.2281C143.414 19.1145 142.733 16.8869 141.973 14.4C141.571 13.0852 141.147 11.6978 140.735 10.3644H131.524V19.5271C131.524 22.4312 135.247 23.0821 137.68 23.1822L135.867 28.0389C129.043 27.6885 125.75 25.235 125.75 20.3783V10.4145H121.836V6.00835H125.75V0H131.524V5.90821H145.459C146.331 8.75543 147.51 12.5664 148.328 15.213C148.719 16.4758 149.027 17.4736 149.182 17.975C149.754 19.7274 150.422 21.0292 151.902 21.6801Z" fill="#2A2425"/>
<path fill-rule="evenodd" clip-rule="evenodd" d="M41.1876 23.9982C41.5904 24.8064 41.6911 25.7156 41.389 26.5743C41.0869 27.4836 40.5331 28.0897 39.7276 28.4939C38.8717 28.898 38.0158 28.999 37.16 28.6454C36.3041 28.3423 35.6496 27.8372 35.1965 26.9785C34.7434 26.1702 34.693 25.3115 34.9951 24.4528C35.2972 23.5435 35.851 22.9374 36.7068 22.4828C37.5627 22.0787 38.4186 21.9776 39.2745 22.2807C40.08 22.5838 40.7345 23.19 41.1876 23.9982Z" fill="#F55760"/>
</svg>
