<svg width="18" height="20" viewBox="0 0 18 20" fill="none" xmlns="http://www.w3.org/2000/svg">
<path d="M8.1481 0C12.6482 0 16.2962 3.51774 16.2962 7.8571C16.2962 9.91568 15.4752 11.7894 14.1317 13.1903L17.5017 17.741C17.9773 18.383 17.8231 19.2752 17.1573 19.7338C16.5427 20.1571 15.707 20.063 15.2081 19.541L15.0907 19.4017L11.7575 14.9032C10.6696 15.4224 9.44417 15.7142 8.1481 15.7142C3.64803 15.7142 0 12.1965 0 7.8571C0 3.51774 3.64803 0 8.1481 0ZM8.1481 2.85713C5.28442 2.85713 2.96294 5.09569 2.96294 7.8571C2.96294 10.6185 5.28442 12.8571 8.1481 12.8571C11.0118 12.8571 13.3332 10.6185 13.3332 7.8571C13.3332 5.09569 11.0118 2.85713 8.1481 2.85713Z" fill="white"/>
</svg>
