<svg width="16" height="16" viewBox="0 0 16 16" fill="none" xmlns="http://www.w3.org/2000/svg">
<path d="M14 8H12.3333V7.13997C12.6613 7.00765 12.9615 6.81038 13.2159 6.55371C13.7216 6.05273 14 5.38232 14 4.66667C14 3.19629 12.8037 2 11.3333 2H10.2456C9.94836 0.851725 8.90637 0 7.66663 0H6.99996C5.76021 0 4.71822 0.851725 4.42102 2H3.33329C2.61764 2 1.94722 2.27832 1.45064 2.77962C0.944946 3.2806 0.666626 3.95101 0.666626 4.66667C0.666626 5.78337 1.35722 6.7404 2.33329 7.13704V14.6667C2.33329 15.402 2.93127 16 3.66663 16H11C11.7353 16 12.3333 15.402 12.3333 14.6667V14.3333H14C14.7353 14.3333 15.3333 13.7354 15.3333 13V9.33333C15.3333 8.59798 14.7353 8 14 8ZM2.39335 3.72266C2.64221 3.47168 2.97603 3.33333 3.33329 3.33333H4.99996C5.36796 3.33333 5.66663 3.03467 5.66663 2.66667C5.66663 1.93132 6.26461 1.33333 6.99996 1.33333H7.66663C8.40198 1.33333 8.99996 1.93132 8.99996 2.66667C8.99996 3.03467 9.29862 3.33333 9.66663 3.33333H11.3333C12.0686 3.33333 12.6666 3.93132 12.6666 4.66667C12.6666 5.02393 12.5283 5.35775 12.2729 5.61068C12.0244 5.86165 11.6906 6 11.3333 6H9.33329C8.96529 6 8.66663 6.29867 8.66663 6.66667V8.66667C8.66663 9.03434 8.36764 9.33333 7.99996 9.33333C7.63228 9.33333 7.33329 9.03434 7.33329 8.66667V6.66667C7.33329 6.29867 7.03463 6 6.66663 6H3.33329C2.59794 6 1.99996 5.40202 1.99996 4.66667C1.99996 4.30941 2.13831 3.97559 2.39335 3.72266ZM11 14.6667H9.33329V13.3333C9.33329 12.9653 9.03463 12.6667 8.66663 12.6667C8.29862 12.6667 7.99996 12.9653 7.99996 13.3333V14.6667H6.66663V11.6667C6.66663 11.2987 6.36796 11 5.99996 11C5.63196 11 5.33329 11.2987 5.33329 11.6667V14.6667H3.66663V7.33333H5.99996V8.66667C5.99996 9.76969 6.89693 10.6667 7.99996 10.6667C9.10299 10.6667 9.99996 9.76969 9.99996 8.66667V7.33333H11V14.6667ZM14 13H12.3333V9.33333H14V13Z" fill="#2A2425"/>
</svg>
