<svg width="20" height="20" viewBox="0 0 20 20" fill="none" xmlns="http://www.w3.org/2000/svg">
<path fill-rule="evenodd" clip-rule="evenodd" d="M7.27312 0.12502C6.20111 0.45688 5.38741 1.18218 4.92924 2.21429C4.70318 2.72345 4.66254 2.96938 4.57727 4.34109L4.48094 5.89212L2.30927 5.92744C0.808502 5.95189 0.104455 5.99929 0.0304983 6.08089C-0.0514016 6.17115 0.0239244 7.10586 0.350885 10.0556C0.994762 15.8636 1.17682 17.1745 1.41814 17.7402C1.66503 18.3191 2.49005 19.2465 3.05915 19.585C3.64122 19.9312 4.68428 19.986 10.8314 19.9936L16.1017 20L16.5951 19.7425C16.8665 19.6009 17.3504 19.247 17.6704 18.9559C18.3867 18.3048 18.6807 17.6871 18.8742 16.4278C19.1371 14.7165 20.066 6.11692 19.9963 6.03994C19.9579 5.99758 18.9233 5.94746 17.697 5.92855L15.4676 5.89423L15.4652 5.3248C15.4598 4.01889 15.2901 2.75636 15.0459 2.20644C14.7361 1.50851 13.9675 0.679361 13.3007 0.323855L12.7741 0.0430111L10.2632 0.00990563C8.25738 -0.0166593 7.65595 0.00648439 7.27312 0.12502ZM12.4126 2.17736C12.8194 2.38092 13.2381 2.87147 13.4253 3.36383C13.5049 3.57333 13.5678 4.41143 13.6084 5.80397L13.6703 7.92504H15.8455H18.0206L17.9745 8.3527C17.9492 8.58786 17.8052 9.93502 17.6546 11.3463C17.2658 14.9887 17.0645 16.4734 16.9017 16.8996C16.822 17.1082 16.5909 17.4055 16.374 17.5788L15.988 17.8869H9.94897H3.90992L3.5364 17.4592C3.33096 17.224 3.11676 16.9323 3.06034 16.8108C2.91078 16.4885 2.53141 13.485 1.99838 8.40301L1.94825 7.92504H6.14332H10.3383L10.5747 7.61542C10.9651 7.10414 10.9662 6.8875 10.5808 6.36928L10.2412 5.91255H8.27555H6.30976L6.36208 4.82117C6.39084 4.21863 6.47484 3.57001 6.54944 3.37318C6.74109 2.86785 7.31219 2.20523 7.64901 2.09767C7.80633 2.04745 8.85944 2.00328 9.98933 1.99946C11.7961 1.99342 12.0881 2.01485 12.4126 2.17736Z" fill="#6D6865"/>
</svg>
