<svg width="16" height="16" viewBox="0 0 16 16" fill="none" xmlns="http://www.w3.org/2000/svg">
<path d="M15.2497 7.7456L14.0833 6.81266C14.0811 6.81087 14.0783 6.80957 14.076 6.80794C14.0614 6.79655 14.0454 6.78825 14.0296 6.77799C14.0057 6.76221 13.9819 6.74626 13.9567 6.73421C13.9411 6.72656 13.9243 6.72152 13.9084 6.71517C13.8813 6.70459 13.8547 6.69466 13.8267 6.68766C13.8097 6.68327 13.792 6.68131 13.7747 6.67822C13.7463 6.6735 13.7183 6.66992 13.6899 6.66894C13.6823 6.66894 13.6746 6.6665 13.6667 6.6665H12.7961L9.81836 3.68896C9.40202 3.27799 8.83333 3.0682 8.2513 3.11198L6.41162 3.25521C6.22135 3.27018 6.02702 3.19727 5.89095 3.06185L3.02441 0.195312C2.76432 -0.0651042 2.34163 -0.0651042 2.08171 0.195312L0.194987 2.08187C0.0703125 2.20687 0 2.37663 0 2.55322C0 2.72998 0.0703125 2.89958 0.195312 3.02458L3.06201 5.89128C3.19808 6.02718 3.27035 6.22152 3.25537 6.41227L3.23568 6.6665H2.33333C2.32536 6.6665 2.31771 6.66894 2.31006 6.66927C2.28141 6.67025 2.25326 6.67399 2.22494 6.67855C2.20768 6.68164 2.19027 6.68359 2.17334 6.68799C2.14535 6.69499 2.11833 6.70524 2.09098 6.71566C2.07503 6.72184 2.05859 6.72689 2.04329 6.73421C2.01807 6.74658 1.99398 6.76253 1.97005 6.77865C1.95459 6.78857 1.93864 6.79687 1.92432 6.80827C1.92204 6.8099 1.91927 6.8112 1.91699 6.81299L0.750326 7.74593C0.273275 8.1276 0 8.69694 0 9.30762V9.99984C0 10.3678 0.298665 10.6665 0.666667 10.6665C1.03467 10.6665 1.33333 10.3678 1.33333 9.99984V9.30762C1.33333 9.10384 1.42464 8.9139 1.58333 8.78662L1.8623 8.56331L3.00895 15.4425C3.06266 15.7643 3.34066 15.9998 3.66667 15.9998H12.3333C12.6593 15.9998 12.9373 15.7643 12.991 15.4429L14.1377 8.56364L14.4167 8.78662C14.5754 8.9139 14.6667 9.10384 14.6667 9.30762V9.99984C14.6667 10.3678 14.9653 10.6665 15.3333 10.6665C15.7013 10.6665 16 10.3678 16 9.99984V9.30762C16 8.69694 15.7267 8.1276 15.2497 7.7456ZM2.55339 1.60921L3.49561 2.55159L2.5516 3.49561L1.60938 2.55322L2.55339 1.60921ZM4.00472 4.94857L3.4943 4.43831L4.43831 3.4943L4.94841 4.00423C5.36198 4.41797 5.93441 4.62923 6.51497 4.58431L8.35433 4.44092C8.54704 4.42692 8.74007 4.49756 8.87826 4.63428L10.9103 6.6665H4.57308L4.58464 6.51497C4.63005 5.93359 4.41862 5.36263 4.00472 4.94857ZM11.7687 14.6665H4.23128L3.12028 7.99984H12.8797L11.7687 14.6665Z" fill="#2A2425"/>
</svg>
