<svg width="12" height="16" viewBox="0 0 12 16" fill="none" xmlns="http://www.w3.org/2000/svg">
<path d="M1.33333 16H10.6667C11.402 16 12 15.402 12 14.6667V8.35661C12 7.90999 11.778 7.49528 11.4064 7.2474L8.59359 5.3724C8.22201 5.12467 8 4.70964 8 4.26302V3.66667C8.368 3.66667 8.66667 3.368 8.66667 3V0.666667C8.66667 0.298665 8.368 0 8 0H4C3.632 0 3.33333 0.298665 3.33333 0.666667V3C3.33333 3.368 3.632 3.66667 4 3.66667V4.26302C4 4.70964 3.77799 5.12435 3.40641 5.3724L0.593587 7.2474C0.222005 7.49528 0 7.90999 0 8.35661V14.6667C0 15.402 0.597982 16 1.33333 16ZM10.6667 12H1.33333V10H10.6667V12ZM1.33333 14.6667V13.3333H10.6667V14.6667H1.33333ZM4.66667 1.33333H7.33333V2.33333H4.66667V1.33333ZM4.146 6.48161C4.88932 5.986 5.33333 5.15674 5.33333 4.26302V3.66667H6.66667V4.26302C6.66667 5.15674 7.11068 5.986 7.85433 6.48161L10.6667 8.35661V8.66667H1.33333V8.35661L4.146 6.48161Z" fill="#2A2425"/>
</svg>
