<svg width="12" height="16" viewBox="0 0 12 16" fill="none" xmlns="http://www.w3.org/2000/svg">
<path d="M11.3333 0H0.666667C0.298665 0 0 0.298665 0 0.666667V2.33333C0 3.06901 0.139648 3.77132 0.382975 4.42334C0.394694 4.46859 0.410319 4.51172 0.430339 4.55241C1.236 6.56673 3.09994 8.04574 5.33333 8.29395V14.6667H3.33333C2.96533 14.6667 2.66667 14.9653 2.66667 15.3333C2.66667 15.7013 2.96533 16 3.33333 16H8.66667C9.03467 16 9.33333 15.7013 9.33333 15.3333C9.33333 14.9653 9.03467 14.6667 8.66667 14.6667H6.66667V8.29395C8.91537 8.04395 10.7884 6.54606 11.585 4.51074C11.6097 4.4624 11.6294 4.4113 11.6416 4.35596C11.8693 3.72298 12 3.04395 12 2.33333V0.666667C12 0.298665 11.7013 0 11.3333 0ZM1.33333 1.33333H10.6667V2.33333C10.6667 2.71794 10.6147 3.08968 10.5267 3.44727L8.98633 3.16667C8.28499 3.04362 7.54769 3.14893 6.92871 3.45833C6.91504 3.46436 6.90169 3.47038 6.88835 3.47705C6.33236 3.75537 5.66764 3.75505 5.10905 3.47607C4.64795 3.2474 4.13639 3.12663 3.62972 3.12663C3.42529 3.12663 3.20703 3.14827 2.9764 3.19271L1.48405 3.48926C1.38932 3.11898 1.33333 2.73307 1.33333 2.33333V1.33333ZM6 7C4.30973 7 2.83073 6.09326 2.01172 4.74398L3.23193 4.5013C3.37565 4.47396 3.5096 4.45996 3.63005 4.45996C3.93669 4.45996 4.23503 4.53092 4.51497 4.6696C4.98193 4.903 5.49463 5.01937 6.00505 5.01937C6.51025 5.01937 7.01367 4.90527 7.46794 4.67871C7.48161 4.67269 7.49495 4.66667 7.5083 4.65999C7.88965 4.46859 8.33171 4.40462 8.75065 4.47933L10.0099 4.70866C9.19564 6.07764 7.7054 7 6 7Z" fill="#2A2425"/>
</svg>
